<svg id="background" xmlns="http://www.w3.org/2000/svg" viewBox="0 0 500 400"><defs><style>.cls-1{fill:#016bb2;stroke-width:2px;}.cls-1,.cls-2,.cls-3,.cls-4{stroke:#fff;}.cls-1,.cls-2,.cls-3,.cls-4,.cls-5{stroke-miterlimit:10;}.cls-2,.cls-6{fill:#fff;}.cls-2,.cls-3,.cls-4{stroke-width:4px;}.cls-3{fill:#f4941a;}.cls-4{fill:#4a4a49;}.cls-5{fill:none;stroke:#1d1d1b;}</style></defs><title>diagnostics-icon3</title><rect class="cls-1" width="500" height="400"/><path class="cls-2" d="M311.4,194.82l-3.25-5.63a140.46,140.46,0,0,0-57-51.48,149.7,149.7,0,0,1-19.94,65.66c-26.45,45.81-72.93,72.32-120.11,73.71H263.91C316.15,277.08,337.52,240.07,311.4,194.82Z"/><path class="cls-3" d="M133.69,62.5a140.45,140.45,0,0,0-16.17,75.21,149.71,149.71,0,0,1,66.82-15.55c52.9,0,99.1,27,123.89,67.17L231.84,57c-26.12-45.24-72-39.75-98.14,5.49"/><path class="cls-4" d="M184.35,253.45a149.67,149.67,0,0,1-46.88-50.08C111,157.56,111.31,104,133.69,62.5L57.29,194.82c-26.12,45.24-4.75,82.26,47.49,82.26h6.34A140.45,140.45,0,0,0,184.35,253.45Z"/><path class="cls-4" d="M384.08,175.44H338.71l33.75,33.73H326.4c-8.93,0-18.22-9.43-29-20.35-14.83-15.05-33.29-33.79-61-33.79H194.47v39.4h41.94c10.46,0,19.42,8.33,32.94,22,14.83,15,31.63,32.1,57.05,32.1h46.06l-33.75,33.73h45.37l53.43-53.43Z"/><line class="cls-5" x1="376" y1="178.03" x2="372.42" y2="178.03"/><path class="cls-6" d="M207.58,321.16c-0.4,2-3,3.6-5.65,3.6H178.5a1.08,1.08,0,0,1-1.08-1.37l4-18.9a1.73,1.73,0,0,1,1.62-1.33h23.47c2.7,0,4.54,1.62,4.1,3.6Zm-12.24-14.87h-1.69l-3.24,15.3h1.69a3.5,3.5,0,0,0,3.35-2.52l2.16-10.22A2.12,2.12,0,0,0,195.34,306.29Z"/><path class="cls-6" d="M222.7,321.91a9,9,0,0,1-6,2.84h-3.35c-2.16,0-3.64-1.3-3.31-2.88l2.84-13.32a1.35,1.35,0,0,1,1.3-1.08h7.92a0.85,0.85,0,0,1,.86,1.08l-2.45,11.52a1.1,1.1,0,0,0,1.08,1.4,1.74,1.74,0,0,0,1.37-.72Zm0.94-16.56a1.46,1.46,0,0,1-1.33,1.08h-7.92a0.84,0.84,0,0,1-.83-1.08l0.22-1.08a1.41,1.41,0,0,1,1.3-1.08H223a0.84,0.84,0,0,1,.86,1.08Z"/><path class="cls-6" d="M249.05,321.91a9,9,0,0,1-6,2.84h-3.35a3.71,3.71,0,0,1-3-1.22c-0.4.29-.79,0.58-1,0.68a5.88,5.88,0,0,1-2.52.58H226c-2.16,0-3.64-1.26-3.31-2.88l2.45-11.52c0.32-1.58,2.38-2.88,4.54-2.88h7.24a3.87,3.87,0,0,1,2.59.86l1-.86h7.92a0.86,0.86,0,0,1,.86,1.08l-2.45,11.52a1.07,1.07,0,0,0,1.08,1.37,1.74,1.74,0,0,0,1.37-.72ZM237.1,310a2.54,2.54,0,0,0-2.23,2.05l-1.73,8.17a1.5,1.5,0,0,0,1.37,2,2.39,2.39,0,0,0,2.2-1.94l1.76-8.24A1.52,1.52,0,0,0,237.1,310Z"/><path class="cls-6" d="M277.64,311.47a1.09,1.09,0,0,0-1.08-.68,1.84,1.84,0,0,0-1.69,1.37c-1.62,7.6-1,4.68-3.31,15.55-0.4,1.94-2.84,2.88-4.5,2.88H251.11c-1.66,0-3.71-.94-3.31-2.88l0.25-1.08a1.42,1.42,0,0,1,1.3-1.08h7.92a0.86,0.86,0,0,1,.86,1.08,1.52,1.52,0,0,0,1.37,2.05,2.52,2.52,0,0,0,2.23-2.05l0.79-3.67h-9.79c-1.62,0-3.71-.94-3.28-2.88l2.05-9.72c0.29-1.4,2.34-2.88,4.54-2.88h7.24a4.06,4.06,0,0,1,2.59.83l0.4,0.4a5.51,5.51,0,0,1,3.46-1.22h3.35a5.27,5.27,0,0,1,4.79,2.88ZM263.45,310a2.55,2.55,0,0,0-2.23,2.05l-1.51,7.05a1.53,1.53,0,0,0,1.37,2.05h1.8l1.94-9.11A1.51,1.51,0,0,0,263.45,310Z"/><path class="cls-6" d="M301.68,321.91a9,9,0,0,1-6,2.84h-3.35c-2.16,0-3.63-1.3-3.31-2.88l2.09-9.83a1.51,1.51,0,0,0-1.37-2.05,2.5,2.5,0,0,0-2.23,2.05L285,323.68a1.34,1.34,0,0,1-1.3,1.08H275.8a0.85,0.85,0,0,1-.86-1.08l3.24-15.12a1.35,1.35,0,0,1,1.3-1.08h7.92l0.65,0.83a5.76,5.76,0,0,1,3-.83h7.23c2.16,0,3.64,1.3,3.31,2.88l-2.05,9.72a1.1,1.1,0,0,0,1.08,1.4,1.74,1.74,0,0,0,1.37-.72Z"/><path class="cls-6" d="M330.12,312.19a10.52,10.52,0,0,1-3.06,2.16l-1.62,7.52c-0.32,1.58-2.38,2.88-4.54,2.88H305c-2.16,0-3.64-1.3-3.31-2.88l2.45-11.52c0.32-1.58,2.38-2.88,4.54-2.88h15.91c2.16,0,3.64,1.3,3.31,2.88a1.11,1.11,0,0,0,1.08,1.4,1.74,1.74,0,0,0,1.37-.72Zm-14-2.2a2.5,2.5,0,0,0-2.23,2.05l-1.73,8.13a1.51,1.51,0,0,0,1.37,2.05,2.5,2.5,0,0,0,2.23-2.05l1.73-8.13A1.51,1.51,0,0,0,316.09,310Z"/><path class="cls-6" d="M355.65,312.05a5.47,5.47,0,0,1-4.54,1.55h-4.39c-2.16,0-2.74-.32-3-1.58-0.22-1.08-.61-1.84-1.69-1.84a2.27,2.27,0,0,0-2.2,1.84c-0.25,1.19-.22,2.41,1.15,2.66l7.2,1.33c2.77,0.5,3.85,1.33,3.28,4l-0.4,1.87c-0.4,1.94-2.88,2.88-4.54,2.88H331.31c-1.66,0-3.71-.94-3.31-2.88l0.47-2.16a1.34,1.34,0,0,1,1.3-1.08h7.56c1,0,.9.83,0.76,1.55a1.41,1.41,0,0,0,1.4,1.87,2.3,2.3,0,0,0,2.2-1.87c0.25-1.22.25-2.38-1.15-2.63l-7.2-1.33c-2.77-.5-3.82-1.44-3.28-4l0.4-1.87c0.43-1.94,2.88-2.88,4.54-2.88H350.1c1.66,0,3.71.94,3.31,2.88a1,1,0,0,0,1.12,1.26,1.94,1.94,0,0,0,1.37-.68Z"/><path class="cls-6" d="M380.2,316.51a1.08,1.08,0,0,0-1.08-.72,1.8,1.8,0,0,0-1.66,1.4l-1,4.68c-0.32,1.58-2.38,2.88-4.54,2.88H356.73c-2.16,0-3.64-1.3-3.31-2.88l3.53-16.63a1.42,1.42,0,0,1,1.33-1.08h7.92a0.83,0.83,0,0,1,.83,1.08l-0.47,2.27h9.61a0.84,0.84,0,0,1,.86,1.08l-0.18.86a1.46,1.46,0,0,1-1.33,1.08h-9.61l-2.05,9.65a1.51,1.51,0,0,0,1.37,2.05,2.5,2.5,0,0,0,2.23-2l1-4.86c0.36-1.58,2.2-2.27,4.36-2.27h2.63c2.2,0,4.1.58,5,2.23Z"/><path class="cls-6" d="M391.72,321.91a9,9,0,0,1-6,2.84h-3.35c-2.16,0-3.64-1.3-3.31-2.88l2.84-13.32a1.35,1.35,0,0,1,1.3-1.08h7.92a0.85,0.85,0,0,1,.86,1.08l-2.45,11.52a1.1,1.1,0,0,0,1.08,1.4,1.74,1.74,0,0,0,1.37-.72Zm0.94-16.56a1.46,1.46,0,0,1-1.33,1.08h-7.92a0.84,0.84,0,0,1-.83-1.08l0.22-1.08a1.41,1.41,0,0,1,1.3-1.08H392a0.84,0.84,0,0,1,.86,1.08Z"/><path class="cls-6" d="M418.18,321.34a1.06,1.06,0,0,0-1-.72,1.67,1.67,0,0,0-1.66,1.26c-0.32,1.58-2.38,2.88-4.54,2.88H395c-2.16,0-3.64-1.3-3.31-2.88l2.45-11.48c0.32-1.58,2.34-2.88,4.5-2.88h15.95c2.16,0,3.64,1.3,3.31,2.88L417.57,312a1.42,1.42,0,0,1-1.3,1.08h-7.92a0.86,0.86,0,0,1-.86-1.08,1.5,1.5,0,0,0-1.37-2,2.5,2.5,0,0,0-2.23,2l-1.73,8.13a1.51,1.51,0,0,0,1.37,2.05,2.54,2.54,0,0,0,2.23-2c0.32-1.58,2.3-2,4.46-2h3.31c2.23,0,4,.32,4.89,2Z"/><path class="cls-6" d="M445.61,312.05a5.47,5.47,0,0,1-4.54,1.55h-4.39c-2.16,0-2.74-.32-3-1.58-0.22-1.08-.61-1.84-1.69-1.84a2.27,2.27,0,0,0-2.2,1.84c-0.25,1.19-.22,2.41,1.15,2.66l7.2,1.33c2.77,0.5,3.85,1.33,3.28,4l-0.4,1.87c-0.4,1.94-2.88,2.88-4.54,2.88H421.28c-1.66,0-3.71-.94-3.31-2.88l0.47-2.16a1.34,1.34,0,0,1,1.3-1.08h7.56c1,0,.9.83,0.76,1.55a1.41,1.41,0,0,0,1.4,1.87,2.3,2.3,0,0,0,2.2-1.87c0.25-1.22.25-2.38-1.15-2.63l-7.2-1.33c-2.77-.5-3.82-1.44-3.28-4l0.4-1.87c0.43-1.94,2.88-2.88,4.54-2.88h15.12c1.66,0,3.71.94,3.31,2.88a1,1,0,0,0,1.12,1.26,1.94,1.94,0,0,0,1.37-.68Z"/></svg>