<svg id="background" xmlns="http://www.w3.org/2000/svg" viewBox="0 0 500 400"><defs><style>.cls-1{fill:#016bb2;stroke-width:2px;}.cls-1,.cls-2,.cls-3{stroke:#fff;}.cls-1,.cls-2,.cls-3,.cls-4{stroke-miterlimit:10;}.cls-2{fill:#f4941a;}.cls-2,.cls-3{stroke-width:4px;}.cls-3{fill:#1d1d1b;}.cls-4{fill:none;stroke:#1d1d1b;}.cls-5{fill:#fff;}</style></defs><title>repairs-icon5</title><rect class="cls-1" width="500" height="400"/><path class="cls-2" d="M95.76,276.56c2.7-3.14,5.34-6.33,8.1-9.4,4.76-5.3,9.68-10.46,14.35-15.84a4.67,4.67,0,0,0,.89-3.89c-2.24-6.22-4.72-12.35-7.28-18.45a4.55,4.55,0,0,0-2.4-2.36c-6.87-2.22-13.76-4.35-20.72-6.25-1-.27-2.72.51-3.53,1.35-7.4,7.64-14.67,15.4-22,23.11-0.58.62-1.23,1.18-2.11,2-2.35-6.27-1.46-12.17.08-18A67.3,67.3,0,0,1,73.26,205c6.85-8.95,16.5-13,27.38-14.15,5.9-.63,11.93-0.1,17.91,0,2.77,0,5.53.25,8.3,0.36a44.65,44.65,0,0,0,26.6-7.54q61-39.29,122.22-78.27c11.21-7.17,22.27-14.56,33.66-21.44A24.32,24.32,0,0,0,321,67.63,103.45,103.45,0,0,1,324.61,55a29.33,29.33,0,0,1,11-14A61.87,61.87,0,0,1,363.8,30.28a65,65,0,0,1,7.71.05c-1.4,1.66-2.11,2.56-2.88,3.42-5.75,6.47-11.48,13-17.3,19.37a3.42,3.42,0,0,0-.67,4.38,34,34,0,0,1,3,7c1.78,7.27,6.28,11.42,13.6,13a36.13,36.13,0,0,1,7.76,3c2.37,1.14,3.92.82,5.71-1.17,5.57-6.19,11.37-12.17,17.09-18.23a10.4,10.4,0,0,1,3.65-2.68c0.18,3.76.73,7.54,0.47,11.26a49,49,0,0,1-9.56,25.51c-5.28,7.36-13.13,10.53-21.68,12-5,.83-10.13.66-15.21,0.72-3,0-6-.34-9-0.57A36.76,36.76,0,0,0,323,113.21q-71.63,45.64-143.65,90.68c-11.87,7.43-20.18,17.26-25,30.31a102.67,102.67,0,0,1-7.71,16.29c-8.76,15-22.6,23.21-39.19,27.23-3.57.86-7.52,0.25-11.29,0.31Z"/><path class="cls-3" d="M41.17,141.26c4.13-.2,8.26-0.49,12.4-0.6,7.12-.19,14.25-0.19,21.37-0.5a4.67,4.67,0,0,0,3.43-2c3-5.9,5.71-11.93,8.37-18a4.55,4.55,0,0,0,.05-3.37c-3.11-6.51-6.32-13-9.73-19.33-0.49-.92-2.24-1.62-3.41-1.63-10.63-.11-21.26,0-31.9,0-0.85,0-1.7-.07-2.93-0.13,2.93-6,7.82-9.43,13.12-12.34a67.3,67.3,0,0,1,25.64-7.64c11.21-1.19,20.77,3,29.11,10.12,4.52,3.84,8.29,8.58,12.35,13,1.88,2,3.62,4.19,5.45,6.26a44.65,44.65,0,0,0,23.78,14.1c47,11.46,93.95,23.15,140.91,34.76,12.92,3.19,25.9,6.13,38.73,9.65a24.32,24.32,0,0,0,19.84-2.77,103.45,103.45,0,0,1,11.63-6.05,29.33,29.33,0,0,1,17.76-1.64,61.87,61.87,0,0,1,27.17,13,65,65,0,0,1,5.27,5.63c-2.17.13-3.31,0.23-4.46,0.27-8.65.28-17.3,0.6-26,.79a3.42,3.42,0,0,0-3.64,2.54,34,34,0,0,1-3,7c-4,6.3-4,12.42-.09,18.83a36.13,36.13,0,0,1,3.19,7.68c0.8,2.5,2.11,3.41,4.78,3.34,8.32-.22,16.66-0.13,25-0.16a10.4,10.4,0,0,1,4.46.8c-2.6,2.72-5,5.72-7.84,8.1a49,49,0,0,1-25.08,10.63c-9,1.24-16.67-2.27-23.6-7.49-4-3-7.45-6.89-11-10.53-2.08-2.14-3.86-4.57-5.75-6.89a36.76,36.76,0,0,0-20.5-13q-82.42-20.53-164.67-41.76c-13.56-3.49-26.41-2.75-39.19,2.74a102.67,102.67,0,0,1-17.12,5.62c-16.89,3.95-32.39-.41-46.73-9.68-3.08-2-5.35-5.28-8-8Z"/><line class="cls-4" x1="168.42" y1="178.03" x2="164.84" y2="178.03"/><line class="cls-4" x1="376" y1="178.03" x2="372.42" y2="178.03"/><path class="cls-5" d="M191.26,272.78a1.72,1.72,0,0,1-1.58,1.33h-9.75c-1.19,0-1.12-1-.9-1.94,0.25-1.3-.32-2.56-1.66-2.56a3.09,3.09,0,0,0-2.7,2.56c-0.4,1.91-.07,3.35,1.84,3.6l8.06,1c3.2,0.4,5.54,1.4,4.72,5.33l-0.5,2.41c-0.5,2.38-3.46,3.6-5.51,3.6H163.61c-2.05,0-4.46-1.22-4-3.6l0.58-2.7a1.72,1.72,0,0,1,1.58-1.33h9.79c1.15,0,1.08,1,.86,1.94-0.25,1.3.32,2.52,1.66,2.52a3,3,0,0,0,2.7-2.52,2.77,2.77,0,0,0-.25-2.34,2.44,2.44,0,0,0-1.58-1.26l-8.06-1c-3-.36-5.47-1.76-4.72-5.33l0.5-2.41c0.5-2.38,3.46-3.6,5.51-3.6h19.65c2.05,0,4.46,1.22,4,3.6Z"/><path class="cls-5" d="M217.68,284.7a1.08,1.08,0,0,0-1.08-.72,1.63,1.63,0,0,0-1.62,1.26c-0.36,1.58-2.38,2.84-4.54,2.84H194.54c-2.16,0-3.64-1.3-3.31-2.88l2.45-11.52c0.32-1.58,2.38-2.88,4.54-2.88h15.91c2.16,0,3.64,1.3,3.31,2.88l-0.72,3.42c-0.36,1.58-2.38,2.88-4.54,2.88h-9.75l-0.76,3.53a1.51,1.51,0,0,0,1.37,2.05,2.5,2.5,0,0,0,2.23-2c0.32-1.58,2.3-2,4.46-2H213c2.23,0,4,.32,4.86,2Zm-12.06-11.37a2.5,2.5,0,0,0-2.23,2.05l-0.5,2.45h3.6l0.5-2.45A1.51,1.51,0,0,0,205.62,273.32Z"/><path class="cls-5" d="M244.36,275.37a8.83,8.83,0,0,1-6,2.88h-1.73c-2.16,0-3.64-1.3-3.31-2.88a1.51,1.51,0,0,0-1.37-2.05,2.5,2.5,0,0,0-2.23,2.05L227.19,287a1.34,1.34,0,0,1-1.3,1.08H218a0.85,0.85,0,0,1-.86-1.08l3.24-15.12a1.34,1.34,0,0,1,1.3-1.08h7.92l0.65,0.83a5.76,5.76,0,0,1,3-.83h5.65c2.16,0,3.64,1.3,3.31,2.88a1,1,0,0,0,1.12,1.26,1.8,1.8,0,0,0,1.33-.68Z"/><path class="cls-5" d="M269.7,274.83a1.08,1.08,0,0,0-1.08-.72,2.13,2.13,0,0,0-1.66,1.4L260.16,287a2.2,2.2,0,0,1-1.55,1.08H247.09A1.11,1.11,0,0,1,246,287l-1.76-15.12a1.08,1.08,0,0,1,1.08-1.08h7.92a1.06,1.06,0,0,1,1.08,1.08l0.07,10.76,3.82-9a4.92,4.92,0,0,1,4.54-2.84c1.26,0,2.3,0,2.3,0a5.69,5.69,0,0,1,4.9,2.88Z"/><path class="cls-5" d="M280,285.24a9,9,0,0,1-6,2.84h-3.35c-2.16,0-3.64-1.3-3.31-2.88l2.84-13.32a1.34,1.34,0,0,1,1.3-1.08h7.92a0.85,0.85,0,0,1,.86,1.08L277.8,283.4a1.09,1.09,0,0,0,1.08,1.4,1.74,1.74,0,0,0,1.37-.72Zm0.94-16.56a1.46,1.46,0,0,1-1.33,1.08h-7.92a0.84,0.84,0,0,1-.83-1.08l0.22-1.08a1.41,1.41,0,0,1,1.3-1.08h7.92a0.84,0.84,0,0,1,.86,1.08Z"/><path class="cls-5" d="M306.45,284.66a1.06,1.06,0,0,0-1-.72,1.67,1.67,0,0,0-1.66,1.26c-0.32,1.58-2.38,2.88-4.54,2.88H283.31c-2.16,0-3.64-1.3-3.31-2.88l2.45-11.48c0.32-1.58,2.34-2.88,4.5-2.88h15.95c2.16,0,3.64,1.3,3.31,2.88l-0.36,1.62a1.42,1.42,0,0,1-1.3,1.08h-7.92a0.86,0.86,0,0,1-.86-1.08,1.5,1.5,0,0,0-1.37-2,2.51,2.51,0,0,0-2.23,2l-1.73,8.14a1.51,1.51,0,0,0,1.37,2.05,2.54,2.54,0,0,0,2.23-2c0.32-1.58,2.3-2,4.46-2h3.31c2.23,0,4,.32,4.9,2Z"/><path class="cls-5" d="M318.91,285.24a9,9,0,0,1-6,2.84h-3.35c-2.16,0-3.64-1.3-3.31-2.88l2.84-13.32a1.34,1.34,0,0,1,1.3-1.08h7.92a0.85,0.85,0,0,1,.86,1.08l-2.45,11.52a1.09,1.09,0,0,0,1.08,1.4,1.74,1.74,0,0,0,1.37-.72Zm0.94-16.56a1.46,1.46,0,0,1-1.33,1.08H310.6a0.84,0.84,0,0,1-.83-1.08L310,267.6a1.41,1.41,0,0,1,1.3-1.08h7.92a0.84,0.84,0,0,1,.86,1.08Z"/><path class="cls-5" d="M345.26,285.24a9,9,0,0,1-6,2.84H335.9c-2.16,0-3.64-1.3-3.31-2.88l2.09-9.83a1.51,1.51,0,0,0-1.37-2.05,2.5,2.5,0,0,0-2.23,2.05L328.6,287a1.34,1.34,0,0,1-1.3,1.08h-7.92a0.85,0.85,0,0,1-.86-1.08l3.24-15.12a1.34,1.34,0,0,1,1.3-1.08H331l0.65,0.83a5.76,5.76,0,0,1,3-.83h7.23c2.16,0,3.64,1.3,3.31,2.88l-2.05,9.72a1.1,1.1,0,0,0,1.08,1.4,1.74,1.74,0,0,0,1.37-.72Z"/><path class="cls-5" d="M373.85,274.8a1.09,1.09,0,0,0-1.08-.68,1.84,1.84,0,0,0-1.69,1.37c-1.62,7.6-1,4.68-3.31,15.55-0.4,1.94-2.84,2.88-4.5,2.88H347.32c-1.66,0-3.71-.94-3.31-2.88l0.25-1.08a1.42,1.42,0,0,1,1.3-1.08h7.92a0.86,0.86,0,0,1,.86,1.08A1.52,1.52,0,0,0,355.7,292a2.52,2.52,0,0,0,2.23-2.05l0.79-3.67h-9.79c-1.62,0-3.71-.94-3.28-2.88l2.05-9.72c0.29-1.4,2.34-2.88,4.54-2.88h7.24a4.05,4.05,0,0,1,2.59.83l0.4,0.4a5.51,5.51,0,0,1,3.46-1.22h3.35a5.27,5.27,0,0,1,4.79,2.88Zm-14.18-1.48a2.55,2.55,0,0,0-2.23,2.05l-1.51,7.06a1.53,1.53,0,0,0,1.37,2.05h1.8l1.94-9.11A1.51,1.51,0,0,0,359.66,273.32Z"/><path class="cls-5" d="M407.61,285.24a9,9,0,0,1-6,2.84h-3.35a3.71,3.71,0,0,1-3-1.22c-0.4.29-.79,0.58-1,0.68a5.89,5.89,0,0,1-2.52.58h-7.24c-2.16,0-3.64-1.26-3.31-2.88l2.45-11.52c0.32-1.58,2.38-2.88,4.54-2.88h7.24a3.87,3.87,0,0,1,2.59.86l1-.86H407a0.86,0.86,0,0,1,.86,1.08l-2.45,11.52a1.07,1.07,0,0,0,1.08,1.37,1.74,1.74,0,0,0,1.37-.72Zm-12-11.88a2.54,2.54,0,0,0-2.23,2.05l-1.73,8.17a1.5,1.5,0,0,0,1.37,2,2.39,2.39,0,0,0,2.2-1.94l1.76-8.24A1.52,1.52,0,0,0,395.66,273.36Z"/><path class="cls-5" d="M434,285.24a9,9,0,0,1-6,2.84h-3.35c-2.16,0-3.63-1.3-3.31-2.88l2.09-9.83a1.51,1.51,0,0,0-1.37-2.05,2.5,2.5,0,0,0-2.23,2.05L417.3,287a1.34,1.34,0,0,1-1.3,1.08h-7.92a0.85,0.85,0,0,1-.86-1.08l3.24-15.12a1.34,1.34,0,0,1,1.3-1.08h7.92l0.65,0.83a5.76,5.76,0,0,1,3-.83h7.23c2.16,0,3.64,1.3,3.31,2.88l-2.05,9.72a1.1,1.1,0,0,0,1.08,1.4,1.74,1.74,0,0,0,1.37-.72Z"/><path class="cls-5" d="M458.12,283.4a1,1,0,0,0,1.08,1.33,1.82,1.82,0,0,0,1.37-.68l-0.25,1.12a8.87,8.87,0,0,1-6,2.92H451a3.64,3.64,0,0,1-3-1.3,3.16,3.16,0,0,1-1,.68,6.66,6.66,0,0,1-2.52.61h-7.24c-2.16,0-3.64-1.3-3.31-2.88l2.45-11.52c0.32-1.58,2.38-2.88,4.54-2.88h7.24a4,4,0,0,1,2.38.68l0.83-4a1.42,1.42,0,0,1,1.33-1.08h7.92a0.83,0.83,0,0,1,.83,1.08Zm-9.75-10.08a2.5,2.5,0,0,0-2.23,2.05l-1.73,8.14a1.51,1.51,0,0,0,1.37,2.05,2.43,2.43,0,0,0,2.2-1.94l1.76-8.31A1.48,1.48,0,0,0,448.37,273.32Z"/><path class="cls-5" d="M144.56,304.9a1.76,1.76,0,0,1-1.62,1.37H133A1.08,1.08,0,0,1,132,304.9l0-.14c0.29-1.4-.47-2.56-1.73-2.56a3.15,3.15,0,0,0-2.77,2.56L125.34,315A1.85,1.85,0,0,0,127,317.5a3.15,3.15,0,0,0,2.81-2.52l0.79-3.78h-2.27l0.58-2.7h13.5a1.08,1.08,0,0,1,1.08,1.37l-2,9.43a1.76,1.76,0,0,1-1.62,1.37H116.41c-2.7,0-4.54-1.62-4.14-3.6l3.06-14.4c0.43-2,3-3.6,5.65-3.6h19.94c2.7,0,4.54,1.62,4.1,3.6Z"/><path class="cls-5" d="M170.88,317.29a1.08,1.08,0,0,0-1.08-.72,1.63,1.63,0,0,0-1.62,1.26c-0.36,1.58-2.38,2.84-4.54,2.84H147.73c-2.16,0-3.64-1.3-3.31-2.88l2.45-11.52c0.32-1.58,2.38-2.88,4.54-2.88h15.91c2.16,0,3.64,1.3,3.31,2.88l-0.72,3.42c-0.36,1.58-2.38,2.88-4.54,2.88h-9.75l-0.76,3.53a1.51,1.51,0,0,0,1.37,2.05,2.5,2.5,0,0,0,2.23-2c0.32-1.58,2.3-2,4.46-2h3.31c2.23,0,4,.32,4.86,2Zm-12.06-11.37a2.5,2.5,0,0,0-2.23,2.05l-0.5,2.45h3.6l0.5-2.45A1.51,1.51,0,0,0,158.82,305.91Z"/><path class="cls-5" d="M197,317.83a9,9,0,0,1-6,2.84h-3.35c-2.16,0-3.64-1.3-3.31-2.88l2.09-9.83a1.51,1.51,0,0,0-1.37-2.05,2.5,2.5,0,0,0-2.23,2.05l-2.48,11.63a1.34,1.34,0,0,1-1.3,1.08h-7.92a0.85,0.85,0,0,1-.86-1.08l3.24-15.12a1.34,1.34,0,0,1,1.3-1.08h7.92l0.65,0.83a5.76,5.76,0,0,1,3-.83h7.24c2.16,0,3.64,1.3,3.31,2.88L194.85,316a1.09,1.09,0,0,0,1.08,1.4,1.74,1.74,0,0,0,1.37-.72Z"/><path class="cls-5" d="M223.51,317.29a1.08,1.08,0,0,0-1.08-.72,1.63,1.63,0,0,0-1.62,1.26c-0.36,1.58-2.38,2.84-4.54,2.84H200.36c-2.16,0-3.64-1.3-3.31-2.88l2.45-11.52c0.32-1.58,2.38-2.88,4.54-2.88h15.91c2.16,0,3.64,1.3,3.31,2.88l-0.72,3.42c-0.36,1.58-2.38,2.88-4.54,2.88h-9.75l-0.76,3.53a1.51,1.51,0,0,0,1.37,2.05,2.5,2.5,0,0,0,2.23-2c0.32-1.58,2.3-2,4.46-2h3.31c2.23,0,4,.32,4.86,2Zm-12.06-11.37a2.5,2.5,0,0,0-2.23,2.05l-0.5,2.45h3.6l0.5-2.45A1.51,1.51,0,0,0,211.45,305.91Z"/><path class="cls-5" d="M250.18,308a8.83,8.83,0,0,1-6,2.88h-1.73c-2.16,0-3.64-1.3-3.31-2.88a1.51,1.51,0,0,0-1.37-2.05A2.5,2.5,0,0,0,235.5,308L233,319.59a1.34,1.34,0,0,1-1.3,1.08H223.8a0.85,0.85,0,0,1-.86-1.08l3.24-15.12a1.34,1.34,0,0,1,1.3-1.08h7.92l0.65,0.83a5.76,5.76,0,0,1,3-.83h5.65c2.16,0,3.64,1.3,3.31,2.88a1,1,0,0,0,1.12,1.26,1.8,1.8,0,0,0,1.33-.68Z"/><path class="cls-5" d="M274,317.83a9,9,0,0,1-6,2.84h-3.35a3.71,3.71,0,0,1-3-1.22c-0.4.29-.79,0.58-1,0.68a5.89,5.89,0,0,1-2.52.58h-7.23c-2.16,0-3.64-1.26-3.31-2.88l2.45-11.52c0.32-1.58,2.38-2.88,4.54-2.88h7.23a3.87,3.87,0,0,1,2.59.86l1-.86h7.92a0.86,0.86,0,0,1,.86,1.08L271.78,316a1.07,1.07,0,0,0,1.08,1.37,1.74,1.74,0,0,0,1.37-.72Zm-12-11.88A2.54,2.54,0,0,0,259.8,308l-1.73,8.17a1.49,1.49,0,0,0,1.37,2,2.39,2.39,0,0,0,2.2-1.94L263.4,308A1.52,1.52,0,0,0,262,305.95Z"/><path class="cls-5" d="M284.46,316a1.1,1.1,0,0,0,1.08,1.4,1.74,1.74,0,0,0,1.37-.72l-0.25,1.15a9,9,0,0,1-6,2.84h-3.35c-2.16,0-3.64-1.3-3.31-2.88l3.74-17.64a1.42,1.42,0,0,1,1.33-1.08H287a0.83,0.83,0,0,1,.83,1.08Z"/><path class="cls-5" d="M328.63,317.79a8.83,8.83,0,0,1-6,2.88h-6.3c-2.16,0-2.52-1.15-2.48-3,0-2.66-.76-6.52-2.56-6.52l0.58-2.7h1.48c0.72,0,1.87-.07,2.09-1l0.86-4.21c0.18-.72-0.86-1-1.44-1h-3l-3.64,17.13a1.76,1.76,0,0,1-1.58,1.33h-9.58a1.05,1.05,0,0,1-1-1.33l4-18.93a1.77,1.77,0,0,1,1.58-1.33h22.64c2.63,0,4.43,1.55,3.92,3.92l-0.94,4.36c-0.5,2.38-3,4-5.58,3.92h-0.47a4.63,4.63,0,0,1,2.84,1.4,7.32,7.32,0,0,1,1.4,2.52c0.4,1,.61,2.2,2,2.2a1.74,1.74,0,0,0,1.37-.72Z"/><path class="cls-5" d="M354.94,317.29a1.07,1.07,0,0,0-1.08-.72,1.63,1.63,0,0,0-1.62,1.26c-0.36,1.58-2.38,2.84-4.54,2.84H331.8c-2.16,0-3.64-1.3-3.31-2.88l2.45-11.52c0.32-1.58,2.38-2.88,4.54-2.88h15.91c2.16,0,3.64,1.3,3.31,2.88L354,309.69c-0.36,1.58-2.38,2.88-4.54,2.88h-9.75l-0.76,3.53a1.51,1.51,0,0,0,1.37,2.05,2.5,2.5,0,0,0,2.23-2c0.32-1.58,2.3-2,4.46-2h3.31c2.23,0,4,.32,4.86,2Zm-12.06-11.37a2.5,2.5,0,0,0-2.23,2.05l-0.5,2.45h3.6l0.5-2.45A1.51,1.51,0,0,0,342.88,305.91Z"/><path class="cls-5" d="M381.12,317.83a8.64,8.64,0,0,1-6,2.84h-8.35a4,4,0,0,1-2.38-.68l-1.15,5.44a1.42,1.42,0,0,1-1.33,1.08H354a0.83,0.83,0,0,1-.83-1.08l4.46-20.95a1.34,1.34,0,0,1,1.3-1.08h7.92l0.65,0.83a5.76,5.76,0,0,1,3-.83h7.23c2.16,0,3.64,1.3,3.31,2.88L378.92,316a1.1,1.1,0,0,0,1.08,1.4,1.74,1.74,0,0,0,1.37-.72Zm-12-11.91a2.5,2.5,0,0,0-2.23,2.05l-1.73,8.14a1.51,1.51,0,0,0,1.37,2.05,2.5,2.5,0,0,0,2.23-2.05l1.73-8.14A1.51,1.51,0,0,0,369.17,305.91Z"/><path class="cls-5" d="M407.47,317.83a9,9,0,0,1-6,2.84h-3.35a3.71,3.71,0,0,1-3-1.22c-0.4.29-.79,0.58-1,0.68a5.89,5.89,0,0,1-2.52.58h-7.24c-2.16,0-3.64-1.26-3.31-2.88l2.45-11.52c0.32-1.58,2.38-2.88,4.54-2.88h7.24a3.87,3.87,0,0,1,2.59.86l1-.86h7.92a0.86,0.86,0,0,1,.86,1.08L405.27,316a1.07,1.07,0,0,0,1.08,1.37,1.74,1.74,0,0,0,1.37-.72Zm-12-11.88a2.54,2.54,0,0,0-2.23,2.05l-1.73,8.17a1.5,1.5,0,0,0,1.37,2,2.39,2.39,0,0,0,2.2-1.94l1.76-8.24A1.52,1.52,0,0,0,395.52,305.95Z"/><path class="cls-5" d="M420.14,317.83a9,9,0,0,1-6,2.84h-3.35c-2.16,0-3.64-1.3-3.31-2.88l2.84-13.32a1.34,1.34,0,0,1,1.3-1.08h7.92a0.85,0.85,0,0,1,.86,1.08L417.94,316a1.1,1.1,0,0,0,1.08,1.4,1.74,1.74,0,0,0,1.37-.72Zm0.94-16.56a1.46,1.46,0,0,1-1.33,1.08h-7.92a0.84,0.84,0,0,1-.83-1.08l0.22-1.08a1.41,1.41,0,0,1,1.3-1.08h7.92a0.84,0.84,0,0,1,.86,1.08Z"/><path class="cls-5" d="M447,308a8.83,8.83,0,0,1-6,2.88h-1.73c-2.16,0-3.64-1.3-3.31-2.88a1.51,1.51,0,0,0-1.37-2.05,2.5,2.5,0,0,0-2.23,2.05l-2.48,11.63a1.34,1.34,0,0,1-1.3,1.08h-7.92a0.85,0.85,0,0,1-.86-1.08L423,304.47a1.34,1.34,0,0,1,1.3-1.08h7.92l0.65,0.83a5.76,5.76,0,0,1,3-.83h5.65c2.16,0,3.63,1.3,3.31,2.88a1,1,0,0,0,1.12,1.26,1.8,1.8,0,0,0,1.33-.68Z"/><path class="cls-5" d="M472.45,308a5.47,5.47,0,0,1-4.54,1.55h-4.39c-2.16,0-2.74-.32-3-1.58-0.22-1.08-.61-1.84-1.69-1.84a2.27,2.27,0,0,0-2.2,1.84c-0.25,1.19-.22,2.41,1.15,2.66l7.2,1.33c2.77,0.5,3.85,1.33,3.28,4l-0.4,1.87c-0.4,1.94-2.88,2.88-4.54,2.88H448.11c-1.66,0-3.71-.94-3.31-2.88l0.47-2.16a1.35,1.35,0,0,1,1.3-1.08h7.56c1,0,.9.83,0.76,1.55a1.41,1.41,0,0,0,1.4,1.87,2.3,2.3,0,0,0,2.2-1.87c0.25-1.22.25-2.38-1.15-2.63l-7.2-1.33c-2.77-.5-3.82-1.44-3.28-4l0.4-1.87c0.43-1.94,2.88-2.88,4.54-2.88H466.9c1.66,0,3.71.94,3.31,2.88a1,1,0,0,0,1.12,1.26,1.94,1.94,0,0,0,1.37-.68Z"/></svg>