<svg id="Layer_1" data-name="Layer 1" xmlns="http://www.w3.org/2000/svg" viewBox="0 0 95 25"><defs><style>.cls-1{fill:#00adee;}.cls-2{fill:#fff;}.cls-3{fill:#eb008b;}.cls-4{fill:#fff100;}.cls-5{fill:#231f20;}</style></defs><title>cmyk-graphic</title><rect class="cls-1" x="0.43" y="0.44" width="23.66" height="24.12"/><path class="cls-2" d="M24.53,25H0V0H24.53V25h0ZM0.86,24.12H23.66V0.88H0.86V24.12h0Z" transform="translate(0 0)"/><rect class="cls-3" x="24.11" y="0.44" width="23.67" height="24.12"/><path class="cls-2" d="M48.21,25H23.68V0H48.21V25h0Zm-23.67-.88h22.8V0.88H24.55V24.12h0Z" transform="translate(0 0)"/><rect class="cls-4" x="47.8" y="0.44" width="23.67" height="24.12"/><path class="cls-2" d="M71.9,25H47.37V0H71.9V25h0Zm-23.67-.88H71V0.88H48.23V24.12h0Z" transform="translate(0 0)"/><rect class="cls-5" x="71.33" y="0.44" width="23.67" height="24.12"/><path class="cls-2" d="M95,25H70.47V0H95V25h0Zm-23.67-.88h22.8V0.88H71.33V24.12h0Z" transform="translate(0 0)"/></svg>