<svg id="Layer_1" data-name="Layer 1" xmlns="http://www.w3.org/2000/svg" viewBox="0 0 273.45 47.82"><defs><style>.cls-1{fill:#585856;}.cls-2{fill:#fff;}.cls-3{fill:#5f6a6d;}.cls-4{fill:#231f20;}.cls-5{fill:#29abe2;}.cls-6{fill:#e90e8b;}.cls-7{fill:#fcee1f;}.cls-8{fill:#1d1d1b;}</style></defs><title>colour-strip</title><rect class="cls-1" x="0.82" y="0.84" width="45.27" height="46.14"/><path class="cls-2" d="M47.37,48.5H.45V.68H47.37V48.5ZM2.09,46.82H45.72V2.35H2.09V46.82Z" transform="translate(-0.45 -0.68)"/><rect class="cls-3" x="46.13" y="0.84" width="45.26" height="46.14"/><path class="cls-2" d="M92.67,48.5H45.75V.68H92.67V48.5ZM47.4,46.82H91V2.35H47.4V46.82Z" transform="translate(-0.45 -0.68)"/><rect class="cls-4" x="91.44" y="0.84" width="45.27" height="46.14"/><path class="cls-2" d="M138,48.5H91.06V.68H138V48.5ZM92.71,46.82h43.62V2.35H92.71V46.82Z" transform="translate(-0.45 -0.68)"/><rect class="cls-5" x="136.74" y="0.84" width="45.27" height="46.14"/><path class="cls-2" d="M183.28,48.5H136.37V.68h46.91V48.5ZM138,46.82h43.63V2.35H138V46.82Z" transform="translate(-0.45 -0.68)"/><rect class="cls-6" x="182.05" y="0.84" width="45.27" height="46.14"/><path class="cls-2" d="M228.59,48.5H181.67V.68h46.92V48.5Zm-45.27-1.68h43.62V2.35H183.32V46.82Z" transform="translate(-0.45 -0.68)"/><rect class="cls-7" x="227.36" y="0.84" width="45.27" height="46.14"/><path class="cls-2" d="M273.9,48.5H227V.68H273.9V48.5Zm-45.27-1.68h43.62V2.35H228.63V46.82Z" transform="translate(-0.45 -0.68)"/><path class="cls-2" d="M100,12.87H110.5l4,15.68,4-15.68H129V38.64h-6.52V19l-5,19.65h-5.91l-5-19.65V38.64H100Z" transform="translate(-0.45 -0.68)"/><path class="cls-8" d="M141.8,12.87h7.56l2.73,14.43,4-14.43h7.54l4,14.41,2.73-14.41h7.52l-5.68,25.77h-7.81l-4.52-16.22-4.5,16.22h-7.81Z" transform="translate(-0.45 -0.68)"/><path class="cls-8" d="M193.27,12.87H205.1a14.25,14.25,0,0,1,5.66,1,9.17,9.17,0,0,1,3.56,2.73,11.32,11.32,0,0,1,2,4.13,18.8,18.8,0,0,1,.64,5,17.52,17.52,0,0,1-.94,6.41,10.78,10.78,0,0,1-2.61,3.81,8.51,8.51,0,0,1-3.59,2,18.44,18.44,0,0,1-4.75.7H193.27Zm8,5.84V32.79h1.95a8.17,8.17,0,0,0,3.55-.56,3.77,3.77,0,0,0,1.65-1.93,12.08,12.08,0,0,0,.6-4.47q0-4.09-1.34-5.61c-.89-1-2.36-1.51-4.43-1.51Z" transform="translate(-0.45 -0.68)"/><path class="cls-8" d="M256,28.09l7,2.11a13,13,0,0,1-2.21,4.91,9.65,9.65,0,0,1-3.76,3,14,14,0,0,1-5.7,1,16.59,16.59,0,0,1-6.86-1.22,10.85,10.85,0,0,1-4.6-4.3,14.54,14.54,0,0,1-1.93-7.87q0-6.39,3.4-9.82t9.62-3.44a13.1,13.1,0,0,1,7.66,2,11.64,11.64,0,0,1,4.14,6l-7,1.56a5.86,5.86,0,0,0-.77-1.72,4.58,4.58,0,0,0-1.63-1.41A5,5,0,0,0,247,20.57a9.2,9.2,0,0,0-1.09,5.07q0,4.29,1.3,5.87a5.14,5.14,0,0,0,7.11.31A7.89,7.89,0,0,0,256,28.09Z" transform="translate(-0.45 -0.68)"/></svg>