<svg id="Layer_1" data-name="Layer 1" xmlns="http://www.w3.org/2000/svg" viewBox="0 0 200 60"><defs><style>.cls-1{fill:#231f20;}.cls-2{fill:#fff;}.cls-3{fill:#58595b;}.cls-4{fill:#808184;}.cls-5{fill:#00adee;}.cls-6{fill:#eb008b;}.cls-7{fill:#fff100;}.cls-8{fill:#1d1d1b;}</style></defs><title>mwdc-logo</title><g id="_Group_" data-name="&lt;Group&gt;"><g id="_Group_2" data-name="&lt;Group&gt;"><g id="_Group_3" data-name="&lt;Group&gt;"><path id="_Compound_Path_" data-name="&lt;Compound Path&gt;" class="cls-1" d="M25.49,45.61A15.59,15.59,0,1,1,41.08,30,15.61,15.61,0,0,1,25.49,45.61h0Zm0-30.55a15,15,0,1,0,15,15,15,15,0,0,0-15-15h0Z"/></g><g id="_Group_4" data-name="&lt;Group&gt;"><circle id="_Path_" data-name="&lt;Path&gt;" class="cls-1" cx="25.49" cy="30.01" r="7.49"/><path id="_Compound_Path_2" data-name="&lt;Compound Path&gt;" class="cls-1" d="M25.49,37.82A7.8,7.8,0,1,1,33.29,30a7.81,7.81,0,0,1-7.81,7.81h0Zm0-15A7.17,7.17,0,1,0,32.66,30a7.18,7.18,0,0,0-7.17-7.17h0Z"/></g></g><g id="_Group_5" data-name="&lt;Group&gt;"><rect id="_Path_2" data-name="&lt;Path&gt;" class="cls-2" x="25.15" y="22.13" width="0.66" height="15.96"/></g><g id="_Group_6" data-name="&lt;Group&gt;"><rect id="_Path_3" data-name="&lt;Path&gt;" class="cls-2" x="17.4" y="29.67" width="15.95" height="0.66"/></g><g id="_Group_7" data-name="&lt;Group&gt;"><rect id="_Path_4" data-name="&lt;Path&gt;" class="cls-1" x="25.11" y="37.77" width="0.66" height="13.67"/></g><g id="_Group_8" data-name="&lt;Group&gt;"><rect id="_Path_5" data-name="&lt;Path&gt;" class="cls-1" x="25.19" y="8.57" width="0.66" height="13.67"/></g><g id="_Group_9" data-name="&lt;Group&gt;"><rect id="_Path_6" data-name="&lt;Path&gt;" class="cls-1" x="4.1" y="29.65" width="13.67" height="0.66"/></g><g id="_Group_10" data-name="&lt;Group&gt;"><rect id="_Path_7" data-name="&lt;Path&gt;" class="cls-1" x="33.2" y="29.65" width="13.67" height="0.66"/></g></g><rect id="_Path_8" data-name="&lt;Path&gt;" class="cls-3" x="59.3" y="18.09" width="22.68" height="23.12"/><path id="_Compound_Path_3" data-name="&lt;Compound Path&gt;" class="cls-2" d="M82.39,41.63H58.88v-24H82.39v24h0Zm-22.68-.84H81.57V18.51H59.71V40.79h0Z"/><rect id="_Path_9" data-name="&lt;Path&gt;" class="cls-4" x="82" y="18.09" width="22.68" height="23.12"/><path id="_Compound_Path_4" data-name="&lt;Compound Path&gt;" class="cls-2" d="M105.09,41.63H81.58v-24h23.51v24h0Zm-22.68-.84h21.86V18.51H82.41V40.79h0Z"/><rect id="_Path_10" data-name="&lt;Path&gt;" class="cls-1" x="104.7" y="18.09" width="22.68" height="23.12"/><path id="_Compound_Path_5" data-name="&lt;Compound Path&gt;" class="cls-2" d="M127.79,41.63H104.29v-24h23.51v24h0Zm-22.68-.84H127V18.51H105.11V40.79h0Z"/><rect id="_Path_11" data-name="&lt;Path&gt;" class="cls-5" x="127.4" y="18.09" width="22.68" height="23.12"/><path id="_Compound_Path_6" data-name="&lt;Compound Path&gt;" class="cls-2" d="M150.49,41.63H127v-24h23.51v24h0Zm-22.68-.84h21.86V18.51H127.81V40.79h0Z"/><rect id="_Path_12" data-name="&lt;Path&gt;" class="cls-6" x="150.1" y="18.09" width="22.68" height="23.12"/><path id="_Compound_Path_7" data-name="&lt;Compound Path&gt;" class="cls-2" d="M173.2,41.63H149.69v-24H173.2v24h0Zm-22.68-.84h21.86V18.51H150.51V40.79h0Z"/><rect id="_Path_13" data-name="&lt;Path&gt;" class="cls-7" x="172.8" y="18.09" width="22.68" height="23.12"/><path id="_Compound_Path_8" data-name="&lt;Compound Path&gt;" class="cls-2" d="M195.9,41.63H172.39v-24H195.9v24h0Zm-22.68-.84h21.86V18.51H173.21V40.79h0Z"/><path class="cls-2" d="M118.82,30.12c-0.06-1.08-.13-2.38-0.11-3.35h0c-0.26.91-.59,1.87-1,2.94l-1.37,3.76h-0.76l-1.25-3.69c-0.37-1.09-.68-2.09-0.9-3h0c0,1-.08,2.26-0.15,3.43L113,33.53h-1l0.54-7.75h1.28l1.32,3.75c0.32,1,.59,1.8.78,2.61h0c0.2-.78.47-1.63,0.82-2.61l1.38-3.75h1.28L120,33.53h-1Z"/><path class="cls-2" d="M136,33.53l-2-7.75h1.06L136,29.7c0.23,1,.44,1.93.57,2.68h0c0.13-.77.37-1.69,0.63-2.69l1-3.91h1l0.94,3.93c0.22,0.92.42,1.84,0.54,2.65h0c0.16-.85.38-1.71,0.62-2.68l1-3.91h1l-2.2,7.75h-1l-1-4a23.38,23.38,0,0,1-.51-2.53h0a24.34,24.34,0,0,1-.6,2.53l-1.1,4h-1Z"/><path class="cls-8" d="M158.26,25.88a14.35,14.35,0,0,1,2.13-.16,4.43,4.43,0,0,1,3.14,1,3.57,3.57,0,0,1,1.09,2.78,4.09,4.09,0,0,1-1.11,3,4.77,4.77,0,0,1-3.43,1.12,16,16,0,0,1-1.82-.09V25.88Zm1,6.85a6.33,6.33,0,0,0,1,.06,3,3,0,0,0,3.3-3.29c0-1.83-1-3-3.14-3a5.71,5.71,0,0,0-1.17.1v6.12Z"/><path class="cls-8" d="M187.07,33.28a5,5,0,0,1-2,.37,3.62,3.62,0,0,1-3.83-3.92,3.86,3.86,0,0,1,4-4.07,4.14,4.14,0,0,1,1.84.35l-0.24.82a3.64,3.64,0,0,0-1.56-.32,2.88,2.88,0,0,0-3,3.2,2.82,2.82,0,0,0,3,3.11,4,4,0,0,0,1.63-.32Z"/></svg>