<svg xmlns="http://www.w3.org/2000/svg" viewBox="0 0 382.78 85.55"><defs><style>.cls-1{fill:#231f20;}.cls-2{fill:#fff;}.cls-3{fill:#575756;}.cls-4{fill:#5e696c;}.cls-5{fill:#00adee;}.cls-6{fill:#eb008b;}.cls-7{fill:#fff100;}.cls-8{fill:#1d1d1b;}</style></defs><title>mwdc_logo_website</title><g id="lettering"><path class="cls-1" d="M48.17,88.67A31.13,31.13,0,1,1,79.29,57.54,31.16,31.16,0,0,1,48.17,88.67Zm0-61A29.86,29.86,0,1,0,78,57.54,29.89,29.89,0,0,0,48.17,27.69Z" transform="translate(-5.49 -14.74)"/><path class="cls-1" d="M63.12,57.54A15,15,0,1,1,48.17,42.6,14.95,14.95,0,0,1,63.12,57.54Z" transform="translate(-5.49 -14.74)"/><path class="cls-1" d="M48.17,73.12A15.58,15.58,0,1,1,63.75,57.54,15.59,15.59,0,0,1,48.17,73.12Zm0-29.89A14.32,14.32,0,1,0,62.48,57.54,14.33,14.33,0,0,0,48.17,43.23Z" transform="translate(-5.49 -14.74)"/><rect class="cls-2" x="42" y="27.06" width="1.31" height="31.85"/><rect class="cls-2" x="26.53" y="42.12" width="31.84" height="1.31"/><rect class="cls-1" x="41.91" y="58.27" width="1.32" height="27.28"/><rect class="cls-1" x="42.08" width="1.31" height="27.27"/><rect class="cls-1" y="42.08" width="27.28" height="1.32"/><rect class="cls-1" x="58.07" y="42.08" width="27.27" height="1.32"/><rect class="cls-3" x="110.15" y="19.01" width="45.27" height="46.14"/><path class="cls-2" d="M161.74,80.73H114.82V32.91h46.92V80.73Zm-45.28-1.67h43.63V34.59H116.46V79.06Z" transform="translate(-5.49 -14.74)"/><rect class="cls-4" x="155.46" y="19.01" width="45.26" height="46.14"/><path class="cls-2" d="M207,80.73H160.12V32.91H207V80.73Zm-45.27-1.67h43.62V34.59H161.77V79.06Z" transform="translate(-5.49 -14.74)"/><rect class="cls-1" x="200.76" y="19.01" width="45.27" height="46.14"/><path class="cls-2" d="M252.35,80.73H205.43V32.91h46.92V80.73Zm-45.27-1.67H250.7V34.59H207.08V79.06Z" transform="translate(-5.49 -14.74)"/><rect class="cls-5" x="246.07" y="19.01" width="45.27" height="46.14"/><path class="cls-2" d="M297.66,80.73H250.74V32.91h46.92V80.73Zm-45.28-1.67H296V34.59H252.38V79.06Z" transform="translate(-5.49 -14.74)"/><rect class="cls-6" x="291.38" y="19.01" width="45.27" height="46.14"/><path class="cls-2" d="M343,80.73H296V32.91H343V80.73Zm-45.27-1.67h43.63V34.59H297.69V79.06Z" transform="translate(-5.49 -14.74)"/><rect class="cls-7" x="336.68" y="19.01" width="45.27" height="46.14"/><path class="cls-2" d="M388.27,80.73H341.35V32.91h46.92V80.73ZM343,79.06h43.62V34.59H343V79.06Z" transform="translate(-5.49 -14.74)"/><path class="cls-2" d="M214.4,45.11h10.47l4,15.68,4-15.68h10.46V70.88h-6.52V51.22l-5,19.66h-5.9l-5-19.66V70.88H214.4Z" transform="translate(-5.49 -14.74)"/><path class="cls-8" d="M256.17,45.11h7.57l2.72,14.42,4-14.42H278l4,14.4,2.73-14.4h7.52l-5.68,25.77h-7.8l-4.52-16.23-4.51,16.23H261.9Z" transform="translate(-5.49 -14.74)"/><path class="cls-8" d="M307.65,45.11h11.83a14.06,14.06,0,0,1,5.65,1,9.25,9.25,0,0,1,3.56,2.72,11.5,11.5,0,0,1,2,4.13,19.27,19.27,0,0,1,.63,5,17.27,17.27,0,0,1-.94,6.41,10.6,10.6,0,0,1-2.61,3.81,8.45,8.45,0,0,1-3.59,2,18.42,18.42,0,0,1-4.74.71H307.65Zm8,5.83V65h1.95a8.2,8.2,0,0,0,3.55-.55,3.77,3.77,0,0,0,1.65-1.93,12.14,12.14,0,0,0,.6-4.48q0-4.1-1.33-5.61c-.9-1-2.37-1.51-4.43-1.51Z" transform="translate(-5.49 -14.74)"/><path class="cls-8" d="M370.36,60.33l7,2.11a12.79,12.79,0,0,1-2.21,4.9,9.51,9.51,0,0,1-3.75,3,14,14,0,0,1-5.71,1,16.42,16.42,0,0,1-6.86-1.23,10.83,10.83,0,0,1-4.6-4.29,14.54,14.54,0,0,1-1.93-7.87q0-6.39,3.4-9.83t9.62-3.43c3.25,0,5.8.65,7.66,2a11.5,11.5,0,0,1,4.14,6l-7,1.57a6.19,6.19,0,0,0-.78-1.73,4.9,4.9,0,0,0-7.94.28,9.24,9.24,0,0,0-1.09,5.08q0,4.27,1.3,5.87a5.14,5.14,0,0,0,7.11.31A7.94,7.94,0,0,0,370.36,60.33Z" transform="translate(-5.49 -14.74)"/></g></svg>