<svg xmlns="http://www.w3.org/2000/svg" viewBox="0 0 109.7 110"><g id="reg-magenta"><path d="M54.9 35a20.1 20.1 0 1020 20 20.1 20.1 0 00-20-20z" fill="#ec008c"/><path fill="#fff" d="M75.1 54.2H55.7V34.8H54v19.4H34.1v1.6H54v19.9h1.7V55.8h19.4v-1.6z"/><path d="M109.7 54.1H94.9A40.2 40.2 0 0055.8 15V0h-1.7v15a40 40 0 00-39.2 39.1H0v1.7h14.9a40 40 0 0039 39.2v15h1.7V95a39.9 39.9 0 0039.3-39.2h14.8zM55.6 93.4V74.9h-1.7v18.5a38.4 38.4 0 01-37.4-37.6h18.6v-1.7H16.5a38.4 38.4 0 0137.6-37.4v18.4h1.7V16.7a38.3 38.3 0 0137.4 37.4H74.7v1.7h18.5a38.3 38.3 0 01-37.6 37.6z" fill="#ec008c"/></g><g id="reg-black"><path d="M54.9 35a20.1 20.1 0 1020 20 20.1 20.1 0 00-20-20z" fill="#231f20"/><path fill="#fff" d="M75.1 54.2H55.7V34.8H54v19.4H34.1v1.6H54v19.9h1.7V55.8h19.4v-1.6z"/><path d="M109.7 54.1H94.9A40.2 40.2 0 0055.8 15V0h-1.7v15a40 40 0 00-39.2 39.1H0v1.7h14.9a40 40 0 0039 39.2v15h1.7V95a39.9 39.9 0 0039.3-39.2h14.8zM55.6 93.4V74.9h-1.7v18.5a38.4 38.4 0 01-37.4-37.6h18.6v-1.7H16.5a38.4 38.4 0 0137.6-37.4v18.4h1.7V16.7a38.3 38.3 0 0137.4 37.4H74.7v1.7h18.5a38.3 38.3 0 01-37.6 37.6z" fill="#231f20"/></g></svg>