<svg id="Layer_1" data-name="Layer 1" xmlns="http://www.w3.org/2000/svg" viewBox="0 0 109.96 110.23"><defs><style>.cls-1{fill:#231f20;}.cls-2{fill:#fff;}</style></defs><title>reg_mark</title><path class="cls-1" d="M59.35,99.75a40.1,40.1,0,1,1,40.1-40.1,40.15,40.15,0,0,1-40.1,40.1h0Zm0-78.57A38.47,38.47,0,1,0,97.82,59.64,38.51,38.51,0,0,0,59.35,21.18h0Z" transform="translate(-4.36 -4.5)"/><circle class="cls-1" cx="54.99" cy="55.15" r="19.26"/><path class="cls-1" d="M59.35,79.71A20.07,20.07,0,1,1,79.42,59.64,20.09,20.09,0,0,1,59.35,79.71h0Zm0-38.51A18.44,18.44,0,1,0,77.79,59.64,18.46,18.46,0,0,0,59.35,41.2h0Z" transform="translate(-4.36 -4.5)"/><rect class="cls-2" x="54.11" y="34.86" width="1.69" height="41.04"/><rect class="cls-2" x="34.18" y="54.27" width="41.03" height="1.69"/><rect class="cls-1" x="54" y="75.08" width="1.71" height="35.14"/><rect class="cls-1" x="54.22" width="1.69" height="35.14"/><rect class="cls-1" y="54.22" width="35.14" height="1.7"/><rect class="cls-1" x="74.82" y="54.22" width="35.14" height="1.7"/></svg>